<mxfile host="app.diagrams.net" agent="Mozilla/5.0 (Windows NT 10.0; Win64; x64) AppleWebKit/537.36 (KHTML, like Gecko) Chrome/140.0.0.0 Safari/537.36" version="28.2.1">
  <diagram name="Page-1" id="Rwo2kJUBhdu4Hp2HozEg">
    <mxGraphModel dx="1489" dy="823" grid="1" gridSize="10" guides="1" tooltips="1" connect="1" arrows="1" fold="1" page="1" pageScale="1" pageWidth="827" pageHeight="1169" math="0" shadow="0">
      <root>
        <mxCell id="0" />
        <mxCell id="1" parent="0" />
        <mxCell id="92zm_HlVjGmk0hQKe1Kj-4" value="" style="edgeStyle=orthogonalEdgeStyle;rounded=0;orthogonalLoop=1;jettySize=auto;html=1;" edge="1" parent="1" source="92zm_HlVjGmk0hQKe1Kj-1" target="92zm_HlVjGmk0hQKe1Kj-3">
          <mxGeometry relative="1" as="geometry" />
        </mxCell>
        <mxCell id="92zm_HlVjGmk0hQKe1Kj-1" value="From Login/Home" style="shape=offPageConnector;whiteSpace=wrap;html=1;direction=south;fillColor=#dae8fc;strokeColor=#6c8ebf;" vertex="1" parent="1">
          <mxGeometry x="700" y="60" width="80" height="80" as="geometry" />
        </mxCell>
        <mxCell id="92zm_HlVjGmk0hQKe1Kj-10" value="" style="edgeStyle=orthogonalEdgeStyle;rounded=0;orthogonalLoop=1;jettySize=auto;html=1;" edge="1" parent="1" source="92zm_HlVjGmk0hQKe1Kj-3" target="92zm_HlVjGmk0hQKe1Kj-6">
          <mxGeometry relative="1" as="geometry" />
        </mxCell>
        <mxCell id="92zm_HlVjGmk0hQKe1Kj-3" value="Display Songs in main page" style="rounded=1;whiteSpace=wrap;html=1;" vertex="1" parent="1">
          <mxGeometry x="510" y="70" width="120" height="60" as="geometry" />
        </mxCell>
        <mxCell id="92zm_HlVjGmk0hQKe1Kj-6" value="While Song Page is Displayed" style="rhombus;whiteSpace=wrap;html=1;" vertex="1" parent="1">
          <mxGeometry x="310" y="60" width="130" height="80" as="geometry" />
        </mxCell>
        <mxCell id="92zm_HlVjGmk0hQKe1Kj-8" value="Will we display artists, albums, or individual songs?" style="shape=note;whiteSpace=wrap;html=1;backgroundOutline=1;fontColor=#000000;darkOpacity=0.05;fillColor=#FFF9B2;strokeColor=none;fillStyle=solid;direction=west;gradientDirection=north;gradientColor=#FFF2A1;shadow=1;size=20;pointerEvents=1;" vertex="1" parent="1">
          <mxGeometry x="30" y="850" width="140" height="160" as="geometry" />
        </mxCell>
        <mxCell id="92zm_HlVjGmk0hQKe1Kj-11" value="" style="endArrow=none;html=1;rounded=0;entryX=0;entryY=0.5;entryDx=0;entryDy=0;" edge="1" parent="1" target="92zm_HlVjGmk0hQKe1Kj-6">
          <mxGeometry width="50" height="50" relative="1" as="geometry">
            <mxPoint x="250" y="100" as="sourcePoint" />
            <mxPoint x="330" y="160" as="targetPoint" />
          </mxGeometry>
        </mxCell>
      </root>
    </mxGraphModel>
  </diagram>
</mxfile>
